REM DIRINDEX 1\2,1\3,1\4,1\5
REM DIRNAME folder01,folder02,folder03,folder04,folder05
TITLE ""
FILE "1Q_j_2115-2128.mp3" MP3
  TRACK 01 AUDIO
    TITLE "3:cjc004_0044"
    INDEX 01 00:00:00
  TRACK 02 AUDIO
    TITLE "0:"
    INDEX 01 00:01:17
  TRACK 03 AUDIO
    TITLE "4:cjc004_0045"
    INDEX 01 00:01:48
  TRACK 04 AUDIO
    TITLE "0:"
    INDEX 01 00:03:37
  TRACK 05 AUDIO
    TITLE "5:cjc004_0046"
    INDEX 01 00:03:70
  TRACK 06 AUDIO
    TITLE "0:"
    INDEX 01 00:08:34
  TRACK 07 AUDIO
    TITLE "3:cjc004_0047"
    INDEX 01 00:09:18
  TRACK 08 AUDIO
    TITLE "0:"
    INDEX 01 00:10:29
  TRACK 09 AUDIO
    TITLE "4:cjc004_0048"
    INDEX 01 00:10:57
  TRACK 10 AUDIO
    TITLE "0:"
    INDEX 01 00:12:05
  TRACK 11 AUDIO
    TITLE "5:cjc004_0049"
    INDEX 01 00:12:30
  TRACK 12 AUDIO
    TITLE "0:"
    INDEX 01 00:19:24
  TRACK 13 AUDIO
    TITLE "3:cjc004_0050"
    INDEX 01 00:20:06
  TRACK 14 AUDIO
    TITLE "0:"
    INDEX 01 00:21:45
  TRACK 15 AUDIO
    TITLE "4:cjc004_0051"
    INDEX 01 00:21:74
  TRACK 16 AUDIO
    TITLE "0:"
    INDEX 01 00:23:44
  TRACK 17 AUDIO
    TITLE "5:cjc004_0052"
    INDEX 01 00:24:00
  TRACK 18 AUDIO
    TITLE "0:"
    INDEX 01 00:27:41
  TRACK 19 AUDIO
    TITLE "3:cjc004_0053"
    INDEX 01 00:28:21
  TRACK 20 AUDIO
    TITLE "0:"
    INDEX 01 00:29:15
  TRACK 21 AUDIO
    TITLE "4:cjc004_0054"
    INDEX 01 00:29:60
  TRACK 22 AUDIO
    TITLE "0:"
    INDEX 01 00:31:20
  TRACK 23 AUDIO
    TITLE "5:cjc004_0055"
    INDEX 01 00:31:49
  TRACK 24 AUDIO
    TITLE "0:"
    INDEX 01 00:35:45
  TRACK 25 AUDIO
    TITLE "3:cjc004_0056"
    INDEX 01 00:36:23
  TRACK 26 AUDIO
    TITLE "0:"
    INDEX 01 00:37:40
  TRACK 27 AUDIO
    TITLE "4:cjc004_0057"
    INDEX 01 00:37:67
  TRACK 28 AUDIO
    TITLE "0:"
    INDEX 01 00:39:19
  TRACK 29 AUDIO
    TITLE "5:cjc004_0058"
    INDEX 01 00:39:45
  TRACK 30 AUDIO
    TITLE "0:"
    INDEX 01 00:42:21
  TRACK 31 AUDIO
    TITLE "3:cjc004_0059"
    INDEX 01 00:43:01
  TRACK 32 AUDIO
    TITLE "0:"
    INDEX 01 00:44:01
  TRACK 33 AUDIO
    TITLE "4:cjc004_0060"
    INDEX 01 00:44:42
  TRACK 34 AUDIO
    TITLE "0:"
    INDEX 01 00:45:55
  TRACK 35 AUDIO
    TITLE "5:cjc004_0061"
    INDEX 01 00:46:04
  TRACK 36 AUDIO
    TITLE "0:"
    INDEX 01 00:51:42
  TRACK 37 AUDIO
    TITLE "3:cjc004_0062"
    INDEX 01 00:52:18
  TRACK 38 AUDIO
    TITLE "0:"
    INDEX 01 00:53:31
  TRACK 39 AUDIO
    TITLE "4:cjc004_0063"
    INDEX 01 00:53:57
  TRACK 40 AUDIO
    TITLE "0:"
    INDEX 01 00:55:26
  TRACK 41 AUDIO
    TITLE "5:cjc004_0064"
    INDEX 01 00:55:51
  TRACK 42 AUDIO
    TITLE "0:"
    INDEX 01 01:00:12
  TRACK 43 AUDIO
    TITLE "3:cjc004_0065"
    INDEX 01 01:00:68
  TRACK 44 AUDIO
    TITLE "0:"
    INDEX 01 01:02:10
  TRACK 45 AUDIO
    TITLE "4:cjc004_0066"
    INDEX 01 01:02:40
  TRACK 46 AUDIO
    TITLE "0:"
    INDEX 01 01:03:49
  TRACK 47 AUDIO
    TITLE "5:cjc004_0067"
    INDEX 01 01:04:00
  TRACK 48 AUDIO
    TITLE "0:"
    INDEX 01 01:07:70
  TRACK 49 AUDIO
    TITLE "3:cjc004_0068"
    INDEX 01 01:08:48
  TRACK 50 AUDIO
    TITLE "0:"
    INDEX 01 01:09:63
  TRACK 51 AUDIO
    TITLE "4:cjc004_0069"
    INDEX 01 01:10:16
  TRACK 52 AUDIO
    TITLE "0:"
    INDEX 01 01:11:39
  TRACK 53 AUDIO
    TITLE "5:cjc004_0070"
    INDEX 01 01:11:62
  TRACK 54 AUDIO
    TITLE "0:"
    INDEX 01 01:15:48
  TRACK 55 AUDIO
    TITLE "3:cjc004_0071"
    INDEX 01 01:16:28
  TRACK 56 AUDIO
    TITLE "0:"
    INDEX 01 01:17:43
  TRACK 57 AUDIO
    TITLE "4:cjc004_0072"
    INDEX 01 01:18:00
  TRACK 58 AUDIO
    TITLE "0:"
    INDEX 01 01:19:05
  TRACK 59 AUDIO
    TITLE "5:cjc004_0073"
    INDEX 01 01:19:32
  TRACK 60 AUDIO
    TITLE "0:"
    INDEX 01 01:23:26
  TRACK 61 AUDIO
    TITLE "3:cjc004_0074"
    INDEX 01 01:24:04
  TRACK 62 AUDIO
    TITLE "0:"
    INDEX 01 01:25:23
  TRACK 63 AUDIO
    TITLE "4:cjc004_0075"
    INDEX 01 01:25:60
  TRACK 64 AUDIO
    TITLE "0:"
    INDEX 01 01:26:72
  TRACK 65 AUDIO
    TITLE "5:cjc004_0076"
    INDEX 01 01:27:24
  TRACK 66 AUDIO
    TITLE "0:"
    INDEX 01 01:31:53
  TRACK 67 AUDIO
    TITLE "3:cjc004_0077"
    INDEX 01 01:32:33
  TRACK 68 AUDIO
    TITLE "0:"
    INDEX 01 01:33:64
  TRACK 69 AUDIO
    TITLE "4:cjc004_0078"
    INDEX 01 01:34:24
  TRACK 70 AUDIO
    TITLE "0:"
    INDEX 01 01:35:43
  TRACK 71 AUDIO
    TITLE "5:cjc004_0079"
    INDEX 01 01:35:69
  TRACK 72 AUDIO
    TITLE "0:"
    INDEX 01 01:42:06
  TRACK 73 AUDIO
    TITLE "3:cjc004_0080"
    INDEX 01 01:42:67
  TRACK 74 AUDIO
    TITLE "0:"
    INDEX 01 01:44:01
  TRACK 75 AUDIO
    TITLE "4:cjc004_0081"
    INDEX 01 01:44:34
  TRACK 76 AUDIO
    TITLE "0:"
    INDEX 01 01:45:44
  TRACK 77 AUDIO
    TITLE "5:cjc004_0082"
    INDEX 01 01:45:69
  TRACK 78 AUDIO
    TITLE "0:"
    INDEX 01 01:50:70
  TRACK 79 AUDIO
    TITLE "3:cjc004_0083"
    INDEX 01 01:51:48
  TRACK 80 AUDIO
    TITLE "0:"
    INDEX 01 01:52:61
  TRACK 81 AUDIO
    TITLE "4:cjc004_0084"
    INDEX 01 01:53:18
  TRACK 82 AUDIO
    TITLE "0:"
    INDEX 01 01:54:35
  TRACK 83 AUDIO
    TITLE "5:cjc004_0085"
    INDEX 01 01:54:64
  TRACK 84 AUDIO
    TITLE "0:"
    INDEX 01 01:59:01
